<svg width="107" height="15" viewBox="0 0 107 15" fill="none" xmlns="http://www.w3.org/2000/svg">
<path d="M9.20454 3.55823H7.88351C7.80539 3.17826 7.66867 2.84445 7.47336 2.55681C7.28159 2.26917 7.04722 2.02769 6.77023 1.83238C6.49679 1.63351 6.19317 1.48436 5.85936 1.38493C5.52556 1.2855 5.17755 1.23578 4.81533 1.23578C4.15482 1.23578 3.55645 1.40269 3.02023 1.73649C2.48756 2.0703 2.0632 2.56213 1.74715 3.21199C1.43465 3.86185 1.2784 4.65908 1.2784 5.60368C1.2784 6.54828 1.43465 7.34551 1.74715 7.99537C2.0632 8.64523 2.48756 9.13706 3.02023 9.47087C3.55645 9.80468 4.15482 9.97158 4.81533 9.97158C5.17755 9.97158 5.52556 9.92186 5.85936 9.82243C6.19317 9.723 6.49679 9.57563 6.77023 9.38032C7.04722 9.18145 7.28159 8.9382 7.47336 8.65056C7.66867 8.35936 7.80539 8.02556 7.88351 7.64914H9.20454C9.1051 8.20666 8.924 8.7056 8.66121 9.14594C8.39843 9.58628 8.07172 9.96093 7.6811 10.2699C7.29047 10.5753 6.85191 10.8079 6.3654 10.9677C5.88245 11.1275 5.36576 11.2074 4.81533 11.2074C3.88493 11.2074 3.05752 10.9801 2.33309 10.5256C1.60865 10.071 1.0387 9.4247 0.623213 8.58664C0.20773 7.74857 -1.10567e-05 6.75425 -1.10567e-05 5.60368C-1.10567e-05 4.45311 0.20773 3.4588 0.623213 2.62073C1.0387 1.78266 1.60865 1.13635 2.33309 0.681807C3.05752 0.227261 3.88493 -1.15037e-05 4.81533 -1.15037e-05C5.36576 -1.15037e-05 5.88245 0.0798891 6.3654 0.23969C6.85191 0.399492 7.29047 0.633867 7.6811 0.942815C8.07172 1.24821 8.39843 1.62108 8.66121 2.06142C8.924 2.49821 9.1051 2.99715 9.20454 3.55823ZM14.4926 11.2287C13.754 11.2287 13.1059 11.0529 12.5484 10.7013C11.9944 10.3498 11.5612 9.85794 11.2487 9.22584C10.9397 8.59374 10.7852 7.8551 10.7852 7.00993C10.7852 6.15766 10.9397 5.4137 11.2487 4.77804C11.5612 4.14239 11.9944 3.64878 12.5484 3.29722C13.1059 2.94566 13.754 2.76988 14.4926 2.76988C15.2313 2.76988 15.8776 2.94566 16.4315 3.29722C16.9891 3.64878 17.4223 4.14239 17.7313 4.77804C18.0438 5.4137 18.2 6.15766 18.2 7.00993C18.2 7.8551 18.0438 8.59374 17.7313 9.22584C17.4223 9.85794 16.9891 10.3498 16.4315 10.7013C15.8776 11.0529 15.2313 11.2287 14.4926 11.2287ZM14.4926 10.0994C15.0537 10.0994 15.5153 9.9556 15.8776 9.66796C16.2398 9.38032 16.5079 9.00212 16.6819 8.53337C16.8559 8.06462 16.9429 7.55681 16.9429 7.00993C16.9429 6.46306 16.8559 5.95347 16.6819 5.48117C16.5079 5.00887 16.2398 4.62712 15.8776 4.33593C15.5153 4.04473 15.0537 3.89914 14.4926 3.89914C13.9315 3.89914 13.4699 4.04473 13.1077 4.33593C12.7455 4.62712 12.4774 5.00887 12.3033 5.48117C12.1293 5.95347 12.0423 6.46306 12.0423 7.00993C12.0423 7.55681 12.1293 8.06462 12.3033 8.53337C12.4774 9.00212 12.7455 9.38032 13.1077 9.66796C13.4699 9.9556 13.9315 10.0994 14.4926 10.0994ZM21.3761 6.13635V11.0582H20.119V2.87641H21.3334V4.15482H21.44C21.6317 3.73934 21.9229 3.40553 22.3136 3.1534C22.7042 2.89772 23.2084 2.76988 23.8263 2.76988C24.3803 2.76988 24.865 2.88351 25.2805 3.11078C25.696 3.33451 26.0192 3.67542 26.25 4.13351C26.4808 4.58806 26.5962 5.16334 26.5962 5.85936V11.0582H25.3391V5.94459C25.3391 5.30184 25.1722 4.80113 24.8384 4.44246C24.5046 4.08024 24.0465 3.89914 23.4641 3.89914C23.0628 3.89914 22.7042 3.98614 22.3881 4.16014C22.0756 4.33415 21.8288 4.58806 21.6477 4.92186C21.4666 5.25567 21.3761 5.6605 21.3761 6.13635ZM32.4516 2.87641V3.94175H28.2115V2.87641H32.4516ZM29.4473 0.916182H30.7044V8.71448C30.7044 9.06959 30.7559 9.33593 30.8589 9.51348C30.9655 9.68749 31.1004 9.80468 31.2637 9.86505C31.4307 9.92186 31.6064 9.95027 31.7911 9.95027C31.9296 9.95027 32.0432 9.94317 32.132 9.92897C32.2208 9.91121 32.2918 9.89701 32.3451 9.88635L32.6008 11.0156C32.5155 11.0476 32.3966 11.0795 32.2439 11.1115C32.0912 11.147 31.8976 11.1648 31.6633 11.1648C31.3081 11.1648 30.9601 11.0884 30.6192 10.9357C30.2819 10.783 30.0013 10.5504 29.7776 10.2379C29.5574 9.92542 29.4473 9.53124 29.4473 9.05539V0.916182ZM34.3426 11.0582V2.87641H35.5571V4.1122H35.6423C35.7914 3.70738 36.0613 3.3789 36.452 3.12676C36.8426 2.87463 37.2829 2.74857 37.773 2.74857C37.8653 2.74857 37.9807 2.75034 38.1192 2.75389C38.2577 2.75745 38.3625 2.76277 38.4335 2.76988V4.04828C38.3909 4.03763 38.2932 4.02165 38.1405 4.00034C37.9914 3.97549 37.8334 3.96306 37.6664 3.96306C37.2687 3.96306 36.9136 4.04651 36.6011 4.21341C36.2922 4.37676 36.0471 4.60404 35.866 4.89523C35.6885 5.18287 35.5997 5.51135 35.5997 5.88067V11.0582H34.3426ZM42.9985 11.2287C42.2598 11.2287 41.6118 11.0529 41.0542 10.7013C40.5003 10.3498 40.067 9.85794 39.7545 9.22584C39.4456 8.59374 39.2911 7.8551 39.2911 7.00993C39.2911 6.15766 39.4456 5.4137 39.7545 4.77804C40.067 4.14239 40.5003 3.64878 41.0542 3.29722C41.6118 2.94566 42.2598 2.76988 42.9985 2.76988C43.7371 2.76988 44.3834 2.94566 44.9374 3.29722C45.4949 3.64878 45.9282 4.14239 46.2371 4.77804C46.5496 5.4137 46.7059 6.15766 46.7059 7.00993C46.7059 7.8551 46.5496 8.59374 46.2371 9.22584C45.9282 9.85794 45.4949 10.3498 44.9374 10.7013C44.3834 11.0529 43.7371 11.2287 42.9985 11.2287ZM42.9985 10.0994C43.5596 10.0994 44.0212 9.9556 44.3834 9.66796C44.7456 9.38032 45.0137 9.00212 45.1878 8.53337C45.3618 8.06462 45.4488 7.55681 45.4488 7.00993C45.4488 6.46306 45.3618 5.95347 45.1878 5.48117C45.0137 5.00887 44.7456 4.62712 44.3834 4.33593C44.0212 4.04473 43.5596 3.89914 42.9985 3.89914C42.4374 3.89914 41.9758 4.04473 41.6135 4.33593C41.2513 4.62712 40.9832 5.00887 40.8092 5.48117C40.6352 5.95347 40.5482 6.46306 40.5482 7.00993C40.5482 7.55681 40.6352 8.06462 40.8092 8.53337C40.9832 9.00212 41.2513 9.38032 41.6135 9.66796C41.9758 9.9556 42.4374 10.0994 42.9985 10.0994ZM49.8819 0.149136V11.0582H48.6248V0.149136H49.8819ZM62.5395 2.87641C62.4756 2.33664 62.2163 1.9176 61.7618 1.61931C61.3073 1.32101 60.7497 1.17186 60.0892 1.17186C59.6063 1.17186 59.1837 1.24999 58.8215 1.40624C58.4628 1.56249 58.1823 1.77733 57.9798 2.05077C57.781 2.32421 57.6815 2.63493 57.6815 2.98294C57.6815 3.27414 57.7508 3.52449 57.8893 3.73401C58.0313 3.93997 58.2124 4.1122 58.4326 4.2507C58.6528 4.38564 58.8836 4.4975 59.1251 4.58628C59.3666 4.67151 59.5885 4.74076 59.7909 4.79402L60.8989 5.09232C61.183 5.16689 61.499 5.26988 61.847 5.40127C62.1986 5.53266 62.5342 5.71199 62.8538 5.93926C63.1769 6.16299 63.4433 6.45063 63.6528 6.80219C63.8623 7.15375 63.9671 7.58522 63.9671 8.09658C63.9671 8.68607 63.8126 9.21874 63.5036 9.69459C63.1982 10.1704 62.7508 10.5486 62.1613 10.8292C61.5754 11.1097 60.8634 11.25 60.0253 11.25C59.244 11.25 58.5675 11.1239 57.9958 10.8718C57.4276 10.6197 56.9802 10.2681 56.6535 9.81711C56.3303 9.36611 56.1474 8.84232 56.1048 8.24573H57.4685C57.504 8.65766 57.6425 8.99857 57.884 9.26845C58.129 9.53479 58.4379 9.73365 58.8108 9.86505C59.1872 9.99289 59.5921 10.0568 60.0253 10.0568C60.5296 10.0568 60.9823 9.97513 61.3836 9.81178C61.7849 9.64488 62.1027 9.41405 62.3371 9.11931C62.5715 8.82101 62.6886 8.473 62.6886 8.07527C62.6886 7.71306 62.5874 7.41831 62.385 7.19104C62.1826 6.96377 61.9163 6.77911 61.586 6.63706C61.2558 6.49502 60.8989 6.37073 60.5153 6.26419L59.173 5.88067C58.3207 5.63564 57.646 5.28586 57.1489 4.83131C56.6517 4.37676 56.4031 3.78195 56.4031 3.04686C56.4031 2.43607 56.5683 1.9034 56.8985 1.44885C57.2323 0.990756 57.6798 0.635642 58.2408 0.383511C58.8055 0.127829 59.4358 -1.15037e-05 60.1318 -1.15037e-05C60.8349 -1.15037e-05 61.4599 0.126054 62.0068 0.378184C62.5537 0.626764 62.9869 0.967673 63.3065 1.40091C63.6297 1.83415 63.8001 2.32598 63.8179 2.87641H62.5395ZM66.7782 14.1264C66.5652 14.1264 66.3752 14.1087 66.2083 14.0731C66.0414 14.0412 65.9259 14.0092 65.862 13.9773L66.1816 12.8693C66.487 12.9474 66.7569 12.9758 66.9913 12.9545C67.2257 12.9332 67.4334 12.8285 67.6145 12.6403C67.7992 12.4556 67.9679 12.1555 68.1206 11.74L68.3549 11.1008L65.3294 2.87641H66.693L68.9515 9.3963H69.0367L71.2953 2.87641H72.6589L69.1859 12.2514C69.0296 12.674 68.8361 13.0238 68.6053 13.3008C68.3745 13.5813 68.1063 13.7891 67.8009 13.924C67.4991 14.0589 67.1582 14.1264 66.7782 14.1264ZM80.1136 4.7088L78.9844 5.0284C78.9133 4.84019 78.8086 4.6573 78.6701 4.47975C78.5351 4.29864 78.3505 4.14949 78.1161 4.0323C77.8817 3.91512 77.5817 3.85652 77.2159 3.85652C76.7152 3.85652 76.2979 3.97193 75.9641 4.20276C75.6339 4.43003 75.4687 4.71945 75.4687 5.07101C75.4687 5.38351 75.5824 5.63032 75.8096 5.81142C76.0369 5.99253 76.392 6.14345 76.875 6.26419L78.0895 6.56249C78.821 6.74005 79.3661 7.01171 79.7248 7.37747C80.0834 7.73969 80.2628 8.20666 80.2628 8.7784C80.2628 9.24715 80.1278 9.66618 79.8579 10.0355C79.5916 10.4048 79.2187 10.696 78.7393 10.9091C78.2599 11.1221 77.7024 11.2287 77.0668 11.2287C76.2322 11.2287 75.5415 11.0476 74.9947 10.6854C74.4478 10.3231 74.1016 9.79402 73.956 9.098L75.1491 8.7997C75.2628 9.24005 75.4776 9.5703 75.7937 9.79047C76.1133 10.0106 76.5305 10.1207 77.0454 10.1207C77.6314 10.1207 78.0966 9.99644 78.441 9.74786C78.7891 9.49573 78.9631 9.19388 78.9631 8.84232C78.9631 8.55823 78.8636 8.3203 78.6648 8.12854C78.4659 7.93323 78.1605 7.78763 77.7486 7.69175L76.3849 7.37215C75.6356 7.19459 75.0852 6.91938 74.7337 6.54651C74.3856 6.17009 74.2116 5.69956 74.2116 5.13493C74.2116 4.67328 74.3413 4.2649 74.6005 3.90979C74.8633 3.55468 75.2202 3.27591 75.6712 3.0735C76.1257 2.87108 76.6406 2.76988 77.2159 2.76988C78.0256 2.76988 78.6612 2.94743 79.1229 3.30255C79.5881 3.65766 79.9183 4.12641 80.1136 4.7088ZM85.7133 2.87641V3.94175H81.4733V2.87641H85.7133ZM82.7091 0.916182H83.9662V8.71448C83.9662 9.06959 84.0177 9.33593 84.1206 9.51348C84.2272 9.68749 84.3621 9.80468 84.5255 9.86505C84.6924 9.92186 84.8682 9.95027 85.0528 9.95027C85.1913 9.95027 85.3049 9.94317 85.3937 9.92897C85.4825 9.91121 85.5535 9.89701 85.6068 9.88635L85.8625 11.0156C85.7772 11.0476 85.6583 11.0795 85.5056 11.1115C85.3529 11.147 85.1593 11.1648 84.925 11.1648C84.5699 11.1648 84.2218 11.0884 83.8809 10.9357C83.5436 10.783 83.263 10.5504 83.0393 10.2379C82.8191 9.92542 82.7091 9.53124 82.7091 9.05539V0.916182ZM90.9468 11.2287C90.1585 11.2287 89.4784 11.0547 88.9067 10.7067C88.3385 10.3551 87.8999 9.86505 87.591 9.23649C87.2856 8.60439 87.1329 7.86931 87.1329 7.03124C87.1329 6.19317 87.2856 5.45453 87.591 4.81533C87.8999 4.17257 88.3296 3.67186 88.88 3.3132C89.434 2.95098 90.0803 2.76988 90.819 2.76988C91.2451 2.76988 91.6659 2.8409 92.0814 2.98294C92.4969 3.12499 92.8751 3.35581 93.216 3.67542C93.5569 3.99147 93.8286 4.4105 94.031 4.93252C94.2334 5.45453 94.3346 6.09729 94.3346 6.86078V7.39345H88.0278V6.30681H93.0562C93.0562 5.84516 92.9639 5.43323 92.7792 5.07101C92.5981 4.7088 92.3389 4.42293 92.0015 4.21341C91.6677 4.00389 91.2735 3.89914 90.819 3.89914C90.3183 3.89914 89.885 4.02343 89.5193 4.27201C89.157 4.51703 88.8783 4.83664 88.683 5.23081C88.4876 5.62499 88.39 6.04757 88.39 6.49857V7.223C88.39 7.8409 88.4965 8.36469 88.7096 8.79438C88.9262 9.22051 89.2263 9.54544 89.6098 9.76917C89.9933 9.98934 90.439 10.0994 90.9468 10.0994C91.2771 10.0994 91.5754 10.0533 91.8417 9.96093C92.1116 9.86505 92.3442 9.723 92.5395 9.53479C92.7348 9.34303 92.8857 9.1051 92.9923 8.82101L94.2068 9.16192C94.0789 9.57385 93.8641 9.93607 93.5622 10.2486C93.2604 10.5575 92.8875 10.799 92.4436 10.973C91.9997 11.1435 91.5008 11.2287 90.9468 11.2287ZM96.2469 11.0582V2.87641H97.4614V4.15482H97.5679C97.7384 3.71803 98.0136 3.3789 98.3935 3.13742C98.7735 2.89239 99.2298 2.76988 99.7625 2.76988C100.302 2.76988 100.751 2.89239 101.11 3.13742C101.472 3.3789 101.755 3.71803 101.957 4.15482H102.042C102.252 3.73223 102.566 3.39665 102.985 3.14807C103.404 2.89594 103.907 2.76988 104.493 2.76988C105.224 2.76988 105.823 2.99892 106.288 3.45702C106.753 3.91157 106.986 4.62002 106.986 5.58237V11.0582H105.728V5.58237C105.728 4.97868 105.563 4.54722 105.233 4.28799C104.903 4.02875 104.514 3.89914 104.066 3.89914C103.491 3.89914 103.046 4.07314 102.729 4.42115C102.413 4.76561 102.255 5.2024 102.255 5.73152V11.0582H100.977V5.45453C100.977 4.98934 100.826 4.61469 100.524 4.3306C100.222 4.04296 99.8335 3.89914 99.3577 3.89914C99.031 3.89914 98.7256 3.98614 98.4415 4.16014C98.1609 4.33415 97.9337 4.57563 97.7597 4.88458C97.5892 5.18997 97.504 5.54331 97.504 5.94459V11.0582H96.2469Z" fill="white"/>
</svg>
