<svg width="100" height="12" viewBox="0 0 100 12" fill="none" xmlns="http://www.w3.org/2000/svg">
<path d="M7.88351 3.75C7.76632 3.39134 7.61185 3.06996 7.42009 2.78587C7.23188 2.49822 7.00638 2.2532 6.7436 2.05078C6.48436 1.84837 6.18962 1.69389 5.85936 1.58736C5.52911 1.48082 5.16689 1.42756 4.77272 1.42756C4.12641 1.42756 3.5387 1.59446 3.00958 1.92827C2.48046 2.26207 2.05965 2.75391 1.74715 3.40376C1.43465 4.05362 1.2784 4.85085 1.2784 5.79545C1.2784 6.74006 1.43642 7.53729 1.75247 8.18714C2.06853 8.837 2.49644 9.32884 3.03621 9.66264C3.57598 9.99645 4.18323 10.1634 4.85794 10.1634C5.48294 10.1634 6.03337 10.0302 6.50922 9.76385C6.98863 9.49396 7.36149 9.11399 7.62783 8.62393C7.89772 8.13033 8.03266 7.54972 8.03266 6.8821L8.43749 6.96733H5.15624V5.79545H9.31107V6.96733C9.31107 7.86577 9.11931 8.64702 8.73579 9.31108C8.35581 9.97514 7.83024 10.4901 7.15908 10.8558C6.49147 11.218 5.72442 11.3991 4.85794 11.3991C3.89203 11.3991 3.04331 11.1719 2.31178 10.7173C1.5838 10.2628 1.01561 9.61648 0.607233 8.77841C0.202404 7.94034 -1.10567e-05 6.94602 -1.10567e-05 5.79545C-1.10567e-05 4.93253 0.115401 4.1566 0.346225 3.46768C0.5806 2.77521 0.910856 2.18572 1.33699 1.69922C1.76313 1.21271 2.26739 0.839844 2.84978 0.580611C3.43216 0.321378 4.07314 0.191761 4.77272 0.191761C5.348 0.191761 5.88422 0.278764 6.38138 0.452769C6.88209 0.623224 7.32776 0.866477 7.71838 1.18253C8.11256 1.49503 8.44104 1.86967 8.70382 2.30646C8.96661 2.7397 9.14772 3.22088 9.24715 3.75H7.88351ZM14.8335 11.4205C14.0452 11.4205 13.3651 11.2464 12.7934 10.8984C12.2252 10.5469 11.7867 10.0568 11.4777 9.42827C11.1723 8.79616 11.0196 8.06108 11.0196 7.22301C11.0196 6.38494 11.1723 5.64631 11.4777 5.0071C11.7867 4.36435 12.2163 3.86364 12.7668 3.50497C13.3207 3.14276 13.9671 2.96165 14.7057 2.96165C15.1318 2.96165 15.5526 3.03267 15.9681 3.17472C16.3836 3.31676 16.7618 3.54759 17.1027 3.86719C17.4436 4.18324 17.7153 4.60227 17.9177 5.12429C18.1201 5.64631 18.2213 6.28906 18.2213 7.05256V7.58523H11.9145V6.49858H16.9429C16.9429 6.03693 16.8506 5.625 16.6659 5.26278C16.4848 4.90057 16.2256 4.6147 15.8882 4.40518C15.5544 4.19567 15.1602 4.09091 14.7057 4.09091C14.205 4.09091 13.7717 4.2152 13.406 4.46378C13.0438 4.70881 12.765 5.02841 12.5697 5.42258C12.3744 5.81676 12.2767 6.23935 12.2767 6.69034V7.41477C12.2767 8.03267 12.3832 8.55646 12.5963 8.98615C12.8129 9.41229 13.113 9.73722 13.4965 9.96094C13.88 10.1811 14.3257 10.2912 14.8335 10.2912C15.1638 10.2912 15.4621 10.245 15.7284 10.1527C15.9983 10.0568 16.2309 9.91477 16.4262 9.72656C16.6215 9.5348 16.7725 9.29687 16.879 9.01278L18.0935 9.35369C17.9656 9.76562 17.7508 10.1278 17.4489 10.4403C17.1471 10.7493 16.7742 10.9908 16.3303 11.1648C15.8864 11.3352 15.3875 11.4205 14.8335 11.4205ZM21.3907 6.32812V11.25H20.1336V3.06818H21.3481V4.34659H21.4546C21.6464 3.93111 21.9376 3.5973 22.3282 3.34517C22.7188 3.08949 23.2231 2.96165 23.841 2.96165C24.395 2.96165 24.8797 3.07528 25.2952 3.30256C25.7107 3.52628 26.0338 3.86719 26.2646 4.32528C26.4955 4.77983 26.6109 5.35511 26.6109 6.05114V11.25H25.3538V6.13636C25.3538 5.49361 25.1869 4.9929 24.8531 4.63423C24.5193 4.27202 24.0612 4.09091 23.4788 4.09091C23.0775 4.09091 22.7188 4.17791 22.4028 4.35192C22.0903 4.52592 21.8435 4.77983 21.6624 5.11364C21.4813 5.44744 21.3907 5.85227 21.3907 6.32812ZM32.3384 11.4205C31.5501 11.4205 30.87 11.2464 30.2983 10.8984C29.7301 10.5469 29.2915 10.0568 28.9826 9.42827C28.6772 8.79616 28.5245 8.06108 28.5245 7.22301C28.5245 6.38494 28.6772 5.64631 28.9826 5.0071C29.2915 4.36435 29.7212 3.86364 30.2717 3.50497C30.8256 3.14276 31.4719 2.96165 32.2106 2.96165C32.6367 2.96165 33.0575 3.03267 33.473 3.17472C33.8885 3.31676 34.2667 3.54759 34.6076 3.86719C34.9485 4.18324 35.2202 4.60227 35.4226 5.12429C35.625 5.64631 35.7262 6.28906 35.7262 7.05256V7.58523H29.4194V6.49858H34.4478C34.4478 6.03693 34.3555 5.625 34.1708 5.26278C33.9897 4.90057 33.7305 4.6147 33.3931 4.40518C33.0593 4.19567 32.6651 4.09091 32.2106 4.09091C31.7099 4.09091 31.2766 4.2152 30.9109 4.46378C30.5486 4.70881 30.2699 5.02841 30.0746 5.42258C29.8793 5.81676 29.7816 6.23935 29.7816 6.69034V7.41477C29.7816 8.03267 29.8881 8.55646 30.1012 8.98615C30.3178 9.41229 30.6179 9.73722 31.0014 9.96094C31.3849 10.1811 31.8306 10.2912 32.3384 10.2912C32.6687 10.2912 32.967 10.245 33.2333 10.1527C33.5032 10.0568 33.7358 9.91477 33.9311 9.72656C34.1264 9.5348 34.2773 9.29687 34.3839 9.01278L35.5984 9.35369C35.4705 9.76562 35.2557 10.1278 34.9538 10.4403C34.652 10.7493 34.2791 10.9908 33.8352 11.1648C33.3913 11.3352 32.8924 11.4205 32.3384 11.4205ZM37.6385 11.25V3.06818H38.853V4.30398H38.9382C39.0873 3.89915 39.3572 3.57067 39.7479 3.31854C40.1385 3.06641 40.5788 2.94034 41.0689 2.94034C41.1612 2.94034 41.2766 2.94212 41.4151 2.94567C41.5536 2.94922 41.6584 2.95455 41.7294 2.96165V4.24006C41.6868 4.2294 41.5891 4.21342 41.4364 4.19212C41.2873 4.16726 41.1293 4.15483 40.9623 4.15483C40.5646 4.15483 40.2095 4.23828 39.897 4.40518C39.5881 4.56854 39.343 4.79581 39.1619 5.087C38.9844 5.37464 38.8956 5.70312 38.8956 6.07244V11.25H37.6385ZM45.6272 11.4418C45.1087 11.4418 44.6382 11.3441 44.2156 11.1488C43.793 10.9499 43.4575 10.6641 43.2089 10.2912C42.9603 9.91477 42.836 9.46023 42.836 8.92756C42.836 8.45881 42.9283 8.07884 43.113 7.78764C43.2977 7.4929 43.5445 7.26207 43.8534 7.09517C44.1624 6.92827 44.5033 6.80398 44.8761 6.7223C45.2526 6.63707 45.6308 6.5696 46.0107 6.51989C46.5079 6.45597 46.9109 6.40803 47.2199 6.37607C47.5324 6.34055 47.7597 6.28196 47.9017 6.20028C48.0473 6.11861 48.1201 5.97656 48.1201 5.77415V5.73153C48.1201 5.20597 47.9763 4.79759 47.6886 4.50639C47.4046 4.2152 46.9731 4.0696 46.3943 4.0696C45.7941 4.0696 45.3236 4.20099 44.9827 4.46378C44.6418 4.72656 44.4021 5.0071 44.2636 5.3054L43.0704 4.87926C43.2835 4.3821 43.5675 3.99503 43.9227 3.71804C44.2813 3.4375 44.672 3.24219 45.0945 3.1321C45.5207 3.01847 45.9397 2.96165 46.3516 2.96165C46.6144 2.96165 46.9163 2.99361 47.2572 3.05753C47.6016 3.1179 47.9337 3.24396 48.2533 3.43572C48.5764 3.62749 48.8445 3.9169 49.0576 4.30398C49.2707 4.69105 49.3772 5.20952 49.3772 5.85938V11.25H48.1201V10.142H48.0562C47.971 10.3196 47.8289 10.5096 47.63 10.712C47.4312 10.9144 47.1666 11.0866 46.8364 11.2287C46.5061 11.3707 46.1031 11.4418 45.6272 11.4418ZM45.819 10.3125C46.3161 10.3125 46.7352 10.2148 47.0761 10.0195C47.4205 9.82422 47.6798 9.57209 47.8538 9.26314C48.0313 8.95419 48.1201 8.62926 48.1201 8.28835V7.13778C48.0668 7.2017 47.9497 7.2603 47.7685 7.31357C47.591 7.36328 47.385 7.40767 47.1506 7.44673C46.9198 7.48224 46.6943 7.5142 46.4742 7.54261C46.2575 7.56747 46.0818 7.58878 45.9468 7.60653C45.6201 7.64915 45.3147 7.71839 45.0306 7.81428C44.7501 7.90661 44.5228 8.04687 44.3488 8.23509C44.1783 8.41974 44.0931 8.67187 44.0931 8.99148C44.0931 9.42827 44.2547 9.75852 44.5778 9.98224C44.9046 10.2024 45.3183 10.3125 45.819 10.3125ZM55.2299 3.06818V4.13352H50.9899V3.06818H55.2299ZM52.2257 1.10795H53.4828V8.90625C53.4828 9.26136 53.5343 9.5277 53.6372 9.70526C53.7438 9.87926 53.8787 9.99645 54.0421 10.0568C54.209 10.1136 54.3848 10.142 54.5694 10.142C54.7079 10.142 54.8215 10.1349 54.9103 10.1207C54.9991 10.103 55.0701 10.0888 55.1234 10.0781L55.3791 11.2074C55.2938 11.2393 55.1749 11.2713 55.0222 11.3033C54.8695 11.3388 54.6759 11.3565 54.4416 11.3565C54.0865 11.3565 53.7384 11.2802 53.3975 11.1275C53.0602 10.9748 52.7796 10.7422 52.5559 10.4297C52.3357 10.1172 52.2257 9.72301 52.2257 9.24716V1.10795ZM57.1209 11.25V3.06818H58.378V11.25H57.1209ZM57.7601 1.70455C57.5151 1.70455 57.3038 1.62109 57.1262 1.45419C56.9522 1.28729 56.8652 1.08665 56.8652 0.852273C56.8652 0.617898 56.9522 0.417258 57.1262 0.250355C57.3038 0.0834516 57.5151 0 57.7601 0C58.0051 0 58.2147 0.0834516 58.3887 0.250355C58.5662 0.417258 58.655 0.617898 58.655 0.852273C58.655 1.08665 58.5662 1.28729 58.3887 1.45419C58.2147 1.62109 58.0051 1.70455 57.7601 1.70455ZM67.3708 3.06818L64.3452 11.25H63.0668L60.0413 3.06818H61.4049L63.6634 9.58807H63.7487L66.0072 3.06818H67.3708ZM72.1675 11.4205C71.3792 11.4205 70.6991 11.2464 70.1274 10.8984C69.5592 10.5469 69.1206 10.0568 68.8117 9.42827C68.5063 8.79616 68.3536 8.06108 68.3536 7.22301C68.3536 6.38494 68.5063 5.64631 68.8117 5.0071C69.1206 4.36435 69.5503 3.86364 70.1008 3.50497C70.6547 3.14276 71.301 2.96165 72.0397 2.96165C72.4658 2.96165 72.8866 3.03267 73.3021 3.17472C73.7176 3.31676 74.0958 3.54759 74.4367 3.86719C74.7776 4.18324 75.0493 4.60227 75.2517 5.12429C75.4541 5.64631 75.5553 6.28906 75.5553 7.05256V7.58523H69.2485V6.49858H74.2769C74.2769 6.03693 74.1846 5.625 73.9999 5.26278C73.8188 4.90057 73.5596 4.6147 73.2222 4.40518C72.8884 4.19567 72.4942 4.09091 72.0397 4.09091C71.539 4.09091 71.1057 4.2152 70.74 4.46378C70.3777 4.70881 70.099 5.02841 69.9037 5.42258C69.7084 5.81676 69.6107 6.23935 69.6107 6.69034V7.41477C69.6107 8.03267 69.7172 8.55646 69.9303 8.98615C70.1469 9.41229 70.447 9.73722 70.8305 9.96094C71.214 10.1811 71.6597 10.2912 72.1675 10.2912C72.4978 10.2912 72.7961 10.245 73.0624 10.1527C73.3323 10.0568 73.5649 9.91477 73.7602 9.72656C73.9555 9.5348 74.1064 9.29687 74.213 9.01278L75.4275 9.35369C75.2996 9.76562 75.0848 10.1278 74.7829 10.4403C74.4811 10.7493 74.1082 10.9908 73.6643 11.1648C73.2204 11.3352 72.7215 11.4205 72.1675 11.4205ZM84.094 11.4418C83.5755 11.4418 83.105 11.3441 82.6824 11.1488C82.2598 10.9499 81.9243 10.6641 81.6757 10.2912C81.4271 9.91477 81.3028 9.46023 81.3028 8.92756C81.3028 8.45881 81.3951 8.07884 81.5798 7.78764C81.7645 7.4929 82.0113 7.26207 82.3202 7.09517C82.6292 6.92827 82.9701 6.80398 83.3429 6.7223C83.7194 6.63707 84.0976 6.5696 84.4775 6.51989C84.9747 6.45597 85.3777 6.40803 85.6867 6.37607C85.9992 6.34055 86.2265 6.28196 86.3685 6.20028C86.5141 6.11861 86.5869 5.97656 86.5869 5.77415V5.73153C86.5869 5.20597 86.4431 4.79759 86.1554 4.50639C85.8713 4.2152 85.4399 4.0696 84.8611 4.0696C84.2609 4.0696 83.7904 4.20099 83.4495 4.46378C83.1086 4.72656 82.8689 5.0071 82.7304 5.3054L81.5372 4.87926C81.7503 4.3821 82.0343 3.99503 82.3895 3.71804C82.7481 3.4375 83.1387 3.24219 83.5613 3.1321C83.9875 3.01847 84.4065 2.96165 84.8184 2.96165C85.0812 2.96165 85.3831 2.99361 85.724 3.05753C86.0684 3.1179 86.4005 3.24396 86.7201 3.43572C87.0432 3.62749 87.3113 3.9169 87.5244 4.30398C87.7375 4.69105 87.844 5.20952 87.844 5.85938V11.25H86.5869V10.142H86.523C86.4378 10.3196 86.2957 10.5096 86.0968 10.712C85.898 10.9144 85.6334 11.0866 85.3032 11.2287C84.9729 11.3707 84.5699 11.4418 84.094 11.4418ZM84.2858 10.3125C84.7829 10.3125 85.202 10.2148 85.5429 10.0195C85.8873 9.82422 86.1466 9.57209 86.3206 9.26314C86.4981 8.95419 86.5869 8.62926 86.5869 8.28835V7.13778C86.5336 7.2017 86.4164 7.2603 86.2353 7.31357C86.0578 7.36328 85.8518 7.40767 85.6174 7.44673C85.3866 7.48224 85.1611 7.5142 84.941 7.54261C84.7243 7.56747 84.5486 7.58878 84.4136 7.60653C84.0869 7.64915 83.7815 7.71839 83.4974 7.81428C83.2169 7.90661 82.9896 8.04687 82.8156 8.23509C82.6451 8.41974 82.5599 8.67187 82.5599 8.99148C82.5599 9.42827 82.7215 9.75852 83.0446 9.98224C83.3713 10.2024 83.7851 10.3125 84.2858 10.3125ZM90.1385 11.25V3.06818H91.353V4.30398H91.4382C91.5873 3.89915 91.8572 3.57067 92.2479 3.31854C92.6385 3.06641 93.0788 2.94034 93.5689 2.94034C93.6612 2.94034 93.7766 2.94212 93.9151 2.94567C94.0536 2.94922 94.1584 2.95455 94.2294 2.96165V4.24006C94.1868 4.2294 94.0891 4.21342 93.9364 4.19212C93.7873 4.16726 93.6293 4.15483 93.4623 4.15483C93.0646 4.15483 92.7095 4.23828 92.397 4.40518C92.0881 4.56854 91.843 4.79581 91.6619 5.087C91.4844 5.37464 91.3956 5.70312 91.3956 6.07244V11.25H90.1385ZM99.7905 3.06818V4.13352H95.5504V3.06818H99.7905ZM96.7862 1.10795H98.0433V8.90625C98.0433 9.26136 98.0948 9.5277 98.1978 9.70526C98.3043 9.87926 98.4393 9.99645 98.6026 10.0568C98.7695 10.1136 98.9453 10.142 99.13 10.142C99.2685 10.142 99.3821 10.1349 99.4709 10.1207C99.5596 10.103 99.6307 10.0888 99.6839 10.0781L99.9396 11.2074C99.8544 11.2393 99.7354 11.2713 99.5827 11.3033C99.43 11.3388 99.2365 11.3565 99.0021 11.3565C98.647 11.3565 98.299 11.2802 97.9581 11.1275C97.6207 10.9748 97.3402 10.7422 97.1165 10.4297C96.8963 10.1172 96.7862 9.72301 96.7862 9.24716V1.10795Z" fill="white"/>
</svg>
