<svg width="38" height="12" viewBox="0 0 38 12" fill="none" xmlns="http://www.w3.org/2000/svg">
<path d="M-2.21133e-05 11.0582V0.149136H3.68606C4.53833 0.149136 5.2379 0.294733 5.78478 0.585926C6.33165 0.873568 6.73648 1.26952 6.99927 1.77378C7.26205 2.27804 7.39344 2.85155 7.39344 3.49431C7.39344 4.13706 7.26205 4.70702 6.99927 5.20418C6.73648 5.70134 6.33343 6.09196 5.79011 6.37605C5.24678 6.65659 4.55253 6.79686 3.70736 6.79686H0.72441V5.60368H3.66475C4.24714 5.60368 4.71589 5.51845 5.071 5.348C5.42967 5.17755 5.6889 4.93607 5.8487 4.62357C6.01205 4.30752 6.09373 3.9311 6.09373 3.49431C6.09373 3.05752 6.01205 2.67577 5.8487 2.34907C5.68535 2.02236 5.42434 1.77023 5.06567 1.59267C4.70701 1.41157 4.23293 1.32101 3.64344 1.32101H1.321V11.0582H-2.21133e-05ZM5.13492 6.15766L7.81958 11.0582H6.28549L3.64344 6.15766H5.13492ZM18.7993 5.60368C18.7993 6.75425 18.5915 7.74857 18.176 8.58664C17.7605 9.4247 17.1906 10.071 16.4662 10.5256C15.7417 10.9801 14.9143 11.2074 13.9839 11.2074C13.0535 11.2074 12.2261 10.9801 11.5017 10.5256C10.7772 10.071 10.2073 9.4247 9.79179 8.58664C9.37631 7.74857 9.16857 6.75425 9.16857 5.60368C9.16857 4.45311 9.37631 3.4588 9.79179 2.62073C10.2073 1.78266 10.7772 1.13635 11.5017 0.681807C12.2261 0.227261 13.0535 -1.15037e-05 13.9839 -1.15037e-05C14.9143 -1.15037e-05 15.7417 0.227261 16.4662 0.681807C17.1906 1.13635 17.7605 1.78266 18.176 2.62073C18.5915 3.4588 18.7993 4.45311 18.7993 5.60368ZM17.5208 5.60368C17.5208 4.65908 17.3628 3.86185 17.0468 3.21199C16.7343 2.56213 16.3099 2.0703 15.7737 1.73649C15.241 1.40269 14.6444 1.23578 13.9839 1.23578C13.3234 1.23578 12.725 1.40269 12.1888 1.73649C11.6561 2.0703 11.2318 2.56213 10.9157 3.21199C10.6032 3.86185 10.447 4.65908 10.447 5.60368C10.447 6.54828 10.6032 7.34551 10.9157 7.99537C11.2318 8.64523 11.6561 9.13706 12.1888 9.47087C12.725 9.80468 13.3234 9.97158 13.9839 9.97158C14.6444 9.97158 15.241 9.80468 15.7737 9.47087C16.3099 9.13706 16.7343 8.64523 17.0468 7.99537C17.3628 7.34551 17.5208 6.54828 17.5208 5.60368ZM26.9864 2.87641C26.9225 2.33664 26.6632 1.9176 26.2087 1.61931C25.7542 1.32101 25.1966 1.17186 24.5361 1.17186C24.0532 1.17186 23.6306 1.24999 23.2684 1.40624C22.9097 1.56249 22.6292 1.77733 22.4267 2.05077C22.2279 2.32421 22.1284 2.63493 22.1284 2.98294C22.1284 3.27414 22.1977 3.52449 22.3362 3.73401C22.4782 3.93997 22.6593 4.1122 22.8795 4.2507C23.0997 4.38564 23.3305 4.4975 23.572 4.58628C23.8135 4.67151 24.0354 4.74076 24.2378 4.79402L25.3458 5.09232C25.6299 5.16689 25.9459 5.26988 26.2939 5.40127C26.6455 5.53266 26.9811 5.71199 27.3007 5.93926C27.6238 6.16299 27.8902 6.45063 28.0997 6.80219C28.3092 7.15375 28.414 7.58522 28.414 8.09658C28.414 8.68607 28.2595 9.21874 27.9505 9.69459C27.6451 10.1704 27.1977 10.5486 26.6082 10.8292C26.0223 11.1097 25.3103 11.25 24.4722 11.25C23.6909 11.25 23.0144 11.1239 22.4427 10.8718C21.8745 10.6197 21.4271 10.2681 21.1004 9.81711C20.7772 9.36611 20.5943 8.84232 20.5517 8.24573H21.9154C21.9509 8.65766 22.0894 8.99857 22.3309 9.26845C22.5759 9.53479 22.8848 9.73365 23.2577 9.86505C23.6341 9.99289 24.039 10.0568 24.4722 10.0568C24.9765 10.0568 25.4292 9.97513 25.8305 9.81178C26.2318 9.64488 26.5496 9.41405 26.784 9.11931C27.0184 8.82101 27.1355 8.473 27.1355 8.07527C27.1355 7.71306 27.0343 7.41831 26.8319 7.19104C26.6295 6.96377 26.3632 6.77911 26.0329 6.63706C25.7027 6.49502 25.3458 6.37073 24.9622 6.26419L23.6199 5.88067C22.7676 5.63564 22.0929 5.28586 21.5958 4.83131C21.0986 4.37676 20.85 3.78195 20.85 3.04686C20.85 2.43607 21.0152 1.9034 21.3454 1.44885C21.6792 0.990756 22.1267 0.635642 22.6877 0.383511C23.2524 0.127829 23.8827 -1.15037e-05 24.5787 -1.15037e-05C25.2818 -1.15037e-05 25.9068 0.126054 26.4537 0.378184C27.0006 0.626764 27.4338 0.967673 27.7534 1.40091C28.0766 1.83415 28.247 2.32598 28.2648 2.87641H26.9864ZM30.3942 11.0582V10.0994L33.995 6.15766C34.4176 5.69601 34.7656 5.29473 35.039 4.95382C35.3125 4.60936 35.5149 4.28621 35.6463 3.98436C35.7812 3.67897 35.8487 3.35936 35.8487 3.02556C35.8487 2.64203 35.7564 2.31 35.5717 2.02946C35.3906 1.74892 35.142 1.5323 34.826 1.37961C34.5099 1.22691 34.1548 1.15056 33.7606 1.15056C33.3416 1.15056 32.9758 1.23756 32.6633 1.41157C32.3544 1.58202 32.1147 1.82172 31.9442 2.13067C31.7773 2.43962 31.6939 2.80184 31.6939 3.21732H30.4368C30.4368 2.57811 30.5841 2.01703 30.8789 1.53408C31.1736 1.05112 31.5749 0.674704 32.0827 0.404818C32.5941 0.134932 33.1676 -1.15037e-05 33.8032 -1.15037e-05C34.4424 -1.15037e-05 35.0089 0.134932 35.5025 0.404818C35.9961 0.674704 36.3831 1.0387 36.6637 1.49679C36.9442 1.95489 37.0845 2.46448 37.0845 3.02556C37.0845 3.42684 37.0117 3.81924 36.8661 4.20276C36.7241 4.58273 36.4755 5.00709 36.1204 5.47584C35.7688 5.94104 35.2805 6.50922 34.6555 7.18039L32.2052 9.80113V9.88635H37.2763V11.0582H30.3942Z" fill="white"/>
</svg>
